<svg xmlns="http://www.w3.org/2000/svg" viewBox="0 0 24 24" fill="currentColor">
  <!-- Substack logo - stylized S in circle -->
  <circle cx="12" cy="12" r="10" fill="none" stroke="currentColor" stroke-width="1.5"/>
  <path d="M9 8.5c0-0.5 0.5-1 1-1h4c0.5 0 1 0.5 1 1v1c0 0.5-0.5 1-1 1h-4c-0.5 0-1-0.5-1-1v-1zm0 3c0-0.5 0.5-1 1-1h4c0.5 0 1 0.5 1 1v1c0 0.5-0.5 1-1 1h-4c-0.5 0-1-0.5-1-1v-1zm0 3c0-0.5 0.5-1 1-1h4c0.5 0 1 0.5 1 1v1c0 0.5-0.5 1-1 1h-4c-0.5 0-1-0.5-1-1v-1z" fill="currentColor"/>
</svg>
